<svg width="363" height="199" viewBox="0 0 363 199" fill="none" xmlns="http://www.w3.org/2000/svg">
<g filter="url(#filter0_d)">
<path fill-rule="evenodd" clip-rule="evenodd" d="M25 15C19.4772 15 15 19.4772 15 25V126C15 131.523 19.4772 136 25 136H314C319.523 136 324 131.523 324 126V25C324 19.4772 319.523 15 314 15H25Z" fill="#FAFAFA"/>
<path d="M25 14.5C19.201 14.5 14.5 19.201 14.5 25V126C14.5 131.799 19.201 136.5 25 136.5H314C319.799 136.5 324.5 131.799 324.5 126V25C324.5 19.201 319.799 14.5 314 14.5H25Z" stroke="black" stroke-opacity="0.1"/>
</g>
<g filter="url(#filter1_d)">
<path d="M139.183 144.96C140.332 145.93 142.02 145.906 143.143 144.906C146.071 142.297 151.374 137.625 152.5 137C154.074 136.126 156 136 156 136C145.913 136 126 136 126 136C126 136 128 136 129.5 137C130.577 137.718 136.136 142.386 139.183 144.96Z" fill="#FAFAFA"/>
<path d="M139.131 144.916C140.302 145.905 142.028 145.859 143.147 144.81C145.949 142.184 151.388 137.618 152.5 137C154.074 136.126 156 136 156 136C145.913 136 126 136 126 136C126 136 128 136 129.5 137C130.571 137.714 136.073 142.333 139.131 144.916Z" fill="#FAFAFA"/>
</g>
<defs>
<filter id="filter0_d" x="-24" y="0" width="387" height="199" filterUnits="userSpaceOnUse" color-interpolation-filters="sRGB">
<feFlood flood-opacity="0" result="BackgroundImageFix"/>
<feColorMatrix in="SourceAlpha" type="matrix" values="0 0 0 0 0 0 0 0 0 0 0 0 0 0 0 0 0 0 127 0"/>
<feOffset dy="24"/>
<feGaussianBlur stdDeviation="19"/>
<feColorMatrix type="matrix" values="0 0 0 0 0 0 0 0 0 0 0 0 0 0 0 0 0 0 0.14 0"/>
<feBlend mode="normal" in2="BackgroundImageFix" result="effect1_dropShadow"/>
<feBlend mode="normal" in="SourceGraphic" in2="effect1_dropShadow" result="shape"/>
</filter>
<filter id="filter1_d" x="126" y="121" width="30" height="31" filterUnits="userSpaceOnUse" color-interpolation-filters="sRGB">
<feFlood flood-opacity="0" result="BackgroundImageFix"/>
<feColorMatrix in="SourceAlpha" type="matrix" values="0 0 0 0 0 0 0 0 0 0 0 0 0 0 0 0 0 0 127 0"/>
<feOffset dy="1"/>
<feColorMatrix type="matrix" values="0 0 0 0 0 0 0 0 0 0 0 0 0 0 0 0 0 0 0.1 0"/>
<feBlend mode="normal" in2="BackgroundImageFix" result="effect1_dropShadow"/>
<feBlend mode="normal" in="SourceGraphic" in2="effect1_dropShadow" result="shape"/>
</filter>
</defs>
</svg>
